<?xml version="1.0" encoding="utf-8"?>
<!-- Generator: Adobe Illustrator 15.0.0, SVG Export Plug-In . SVG Version: 6.00 Build 0)  -->
<!DOCTYPE svg PUBLIC "-//W3C//DTD SVG 1.1//EN" "http://www.w3.org/Graphics/SVG/1.1/DTD/svg11.dtd">
<svg version="1.1" id="レイヤー_1" xmlns="http://www.w3.org/2000/svg" xmlns:xlink="http://www.w3.org/1999/xlink" x="0px"
	 y="0px" width="750px" height="600px" viewBox="0 0 750 600" enable-background="new 0 0 750 600" xml:space="preserve">
<g>
	<defs>
		<path id="SVGID_1_" d="M144.543,557.667C56.718,494.744,22.851,434.008,22.851,330.637c0-145.345,159.518-263.169,356.292-263.169
			c196.776,0,356.294,117.825,356.294,263.169c0,98.73-23.537,153.157-95.635,227.03H144.543z"/>
	</defs>
	<clipPath id="SVGID_2_">
		<use xlink:href="#SVGID_1_"  overflow="visible"/>
	</clipPath>
	<path clip-path="url(#SVGID_2_)" fill="#9DC3DF" d="M144.543,557.667C56.718,494.744,22.851,434.008,22.851,330.637
		c0-145.345,159.518-263.169,356.292-263.169c196.776,0,356.294,117.825,356.294,263.169c0,98.73-23.537,153.157-95.635,227.03"/>
	<g id="temp" clip-path="url(#SVGID_2_)">
		<path fill="#FBFAD5" stroke="#F7F8F8" stroke-width="4" stroke-linecap="round" stroke-linejoin="round" d="M221.793,434.301"/>
		<path fill="#FBFAD5" stroke="#F7F8F8" stroke-width="4" stroke-linecap="round" stroke-linejoin="round" d="M415.767,180.602"/>
		<g>
			<path fill="#FBFAD5" stroke="#9DC3DF" stroke-width="4" stroke-miterlimit="10" d="M181.339,429.448l1.755-2.784
				c20.861-33.154,40.886-67.016,62.75-99.518c18.919-28.123,40.158-57.404,55.562-86.893c2.065-3.864,4.99-7.872,8.793-10.431
				l-0.39,0.654c9.346-9.005,22.523-14.164,30.212-24.983c7.997-11.254,13.995-25.061,23.303-35.122
				c3.824-4.134,10.242-7.314,12.356-12.853c2.179-5.705,3.813-11.027,8.352-15.328c8.345-7.911,22.027-9.484,32.868-9.767
				l2.805,3.354c-3.457,14.744-7.837,29.274-11.294,44.022c-1.652,7.053-2.12,16.394-7.27,22.072
				c-4.898,5.401-11.183,7.197-16.896,11.542c-11.566,8.796-22.311,2.834-32.788,10.344c-6.615,4.741-7.324,11.246-11.512,17.212
				c-3.497,4.982-8.783,7.509-9.757,13.879c-1.147,7.504,3.915,12.099,3.086,20.032c-0.573,5.494-1.563,15.159-4.294,19.993
				c-3.378,5.978-10.396,8.865-15.81,12.878c-6.369,4.721-3.143,8.87-7.68,14.051c-21.194,24.199-39.212,49.517-56.429,76.775
				l-2.098-0.929l-20.549,32.559l-3.805,3.995l-11.342-5.367c-2.377,3.811-4.749,7.624-7.11,11.443L181.339,429.448z"/>
			<path fill="#FBFAD5" stroke="#9DC3DF" stroke-width="4" stroke-miterlimit="10" d="M291.674,456.87l0.391-1.055l-47.784-20.661
				l-1.658-0.802l14.976-23.804l20.246,9.545l1.695-3.1c1.15,0.265,2.235,0.701,3.245,1.306l-1.781,3.261l19.647,9.322l-1.135,2.859
				l1.11,0.8l-6.5,17.149l-0.647-0.169l0.512,0.56l-1.451,3.85"/>
			<path fill="#FBFAD5" stroke="#9DC3DF" stroke-width="4" stroke-miterlimit="10" d="M317.736,469.02
				c1.357-4.754,1.237-8.636,5.781-10.831l-0.61-0.938c16.343-7.935,30.263-16.264,45.172-26.651l0.353,0.38
				c15.04-9.073,23.389-22.176,33.563-36.153c4.988-6.854,9.083-9.842,10.122-18.783c1.066-9.166,2.114-15.257,6.258-23.387
				c8.555-16.781,23.486-29.213,33.141-45.637c4.33-7.366-1.631-15.525-2.084-23.508c-0.429-7.58,3.111-14.879,5.872-21.71
				c11.74,7.379,15.559,12.033,22.709,23.961c12.34,10.51,33.971,16.793,49.57,22.317c19.712,6.98,31.661,13.804,42.971,31.797
				c10.194,16.219,13.271,34.454,10.807,53.45c-1.085,8.364-4.27,13.998-7.701,20.901c-5.033,10.124-3.6,15.402-5.044,26.169
				c-8.72,0.363-17.262,11.253-23.867,16.759l-40.697,1.635c-7.494-10.087-6.077-16.207-5.806-28.835l-6.158-0.084l0.11-10.198
				l3.646,0.114c1.622-7.468-10.082-10.669-15.77-12.149l-0.062,3.06l9.281,4.429l-0.463,23.077l-2.269,4.26
				c-10.852,5.222-30.808,9.833-36.124,21.694l-4.817-0.674l0.354-3.766c-13.141-0.518-25.821-0.917-38.93-0.042l-0.451,4.26
				c-5.889-2.502-8.878,2.718-11.963,1.88c-14.436-3.924-20.642-7.774-32.674,2.424l4.427,5.633
				c-3.992,9.996-8.453,14.227,1.634,20.966l-5.548,19.585l-13.939-2.953l-0.768,2.794c-5.232-1.518-8.822,2.107-14.026,1.183
				c-3.58-0.636-5.403-5.036-9.244-6.159l3.67-12.931l-16.953-3.618l-0.486,1.014L317.736,469.02z"/>
			<path fill="#FBFAD5" stroke="#9DC3DF" stroke-width="4" stroke-miterlimit="10" d="M396.497,492.866l1.171-0.402
				c0.231-0.903,0.08-1.728-0.598-2.235c0.492-4.881,5.798-25.226,9.463-25.754c0.209,0.951,0.036,1.871-0.598,2.488l0.33,1.276
				c2.411-0.839,4.938-1.081,7.427-0.685l0.171-0.465l0.585,0.146l-0.158,0.454c1.863,0.369,3.458,1.234,4.781,2.595l0.293-0.411
				c0.804,9.036,4.113,18.416,6.341,27.336l-2.562,0.791l3.903,6.939l-0.475,0.211c0.972,4.586-3.429,6.93-4.816,11.286
				l-1.147-0.115l-1.732,2.509c-2.074-2.502-4.49-3.876-7.744-4.323c0.157-0.8,0.045-1.617-0.354-2.278l-0.525,0.496
				c-0.524-5.221-4.222-10.535-9.806-11.001C400.528,498.102,399.384,494.959,396.497,492.866z"/>
			<path fill="#FBFAD5" stroke="#9DC3DF" stroke-width="4" stroke-miterlimit="10" d="M315.505,430.25l8.939,1.341l-1.757,8.584
				c6.065-0.397,15.214-2.596,19.648-6.664c1.959-0.572,4.545-2.081,6.378-3.692l-3.988-4.071l7.915-20.154l9.927,1.509l8.745,4.323
				c12.22-22.766,2.909-52.809-5.457-75.7c-3.393-9.281-8.473-28.447,0.081-36.426c13.061-12.18,16.922-16.549,8.022-34.092
				l-0.951,0.485c-6.856,12.296-13.903,24.155-21.55,35.975l0.427,0.274c-3.466,8.674,0.674,17.932-2.306,27.167
				c-3.868,11.988-14.028,19.938-15.464,33.116C331.723,384.187,327.863,410.577,315.505,430.25z"/>
			<path fill="#FBFAD5" stroke="#9DC3DF" stroke-width="4" stroke-miterlimit="10" d="M390.996,392.198
				c-5.434-23.474-17.948-45.415-23.367-68.637c-3.828-16.413,1.706-18.052,10.659-29.521c9.937-12.729,1.085-16.814-1.561-29.424
				c-1.44-6.868-0.455-12.656-2.646-19.575c-1.916-6.05-5.26-9.989-1.488-16.294c5.138-8.59,21.809-11.617,29.314-17.948
				c6.318-5.331,13.623-29.41,18.64-29.513c10.312-0.211,11.744,19.865,20.33,24.037c9.374,8.76,6.993,11.826-0.738,19.2
				c-10.838,10.338,0.854,14.979,6.751,22.818c6.563,8.723,3.473,16.175,1.122,25.817c-2.643,10.838,1.049,16.94,0.583,27.19
				c-0.831,18.29-23.126,28.263-32.046,42.383c-6.062,9.597-8.911,17.693-10.34,28.935c-1.142,8.989-3.8,16.712-12.456,21.355
				C392.624,393.461,391.706,393.184,390.996,392.198z"/>
			<path fill="#FBFAD5" stroke="#9DC3DF" stroke-width="4" stroke-miterlimit="10" d="M260.124,405.846
				c4.774-9.721,9.404-25.35,18.056-32.504c5.82-4.813,8.173-16.719,14.056-22.317l-0.426-0.465
				c5.274-6.519,19.375-24.063,19.424-32.014c0.073-11.925,14.098-11.342,20.028-19.896c5.165-7.451,7.862-25.832,4.792-34.06
				c-5.119-13.716,7.384-21.846,13.539-33.32c4.262-7.946,23.192-13.928,16.964-0.923c-4.39,9.165,4.806,17.671,5.153,27.574
				c0.348,9.896-12.442,22.659-17.251,30.764c-2.934,4.943-7.054,11.847-7.147,17.452c-0.074,4.457,0.365,7.951-1.72,11.656
				c-1.11,14.033-11.55,27.727-17.505,41.039c-5.699,12.739-6.112,31.406-14.46,41.815l-4.916,10.758
				c0.036,4.597-2.928,10.324-4.78,15.166C289.333,419.65,274.725,412.757,260.124,405.846z"/>
			<g>
				<path fill="#FBFAD5" stroke="#9DC3DF" stroke-width="4" stroke-miterlimit="10" d="M468.127,83.358
					c11.04-11.857-1.424-10.31-17.295-12.394c-20.032-2.632-23.752-6.337-57.332,0c-57.379,10.828-21.784,3.906-121.863,47.09
					c-40.481,17.468-46.141,24.372-77.247,51.082c-15.116,12.979-80.633,63.498-93.89,74.865c-2.887,2.476-36.717,32.529-57,66
					c-4.145,6.841-10.173,17.36-12.25,24.875C24.375,359.75,24.793,383.479,28,388.7c24.641,40.118,37.337,33.846,34.43,35.539
					c11.986-6.98,32.24-5.444,45.621-7.04c6.191-0.738,12.382-1.476,18.572-2.221c10.481-1.262,10.831-2.749,17.238-11.673
					c7.15,3.877,14.285,7.784,21.452,11.631c13.57-12.262,23.23-30.832,33.746-45.549c16.691-23.359,33.382-46.72,50.073-70.079
					c20.618-28.856,39.016-62.618,67.919-83.868c16.491-12.125,23.174-24.292,34.808-40.755c3.503-4.958,7.388-8.727,11.885-12.827
					c7.928-7.226,9.132-17.666,17.228-24.63c13.313-11.454,32.438-6.781,47.161-15.024
					C445.074,112.719,456.763,98.854,468.127,83.358z"/>
			</g>
			<path fill="#FBFAD5" stroke="#9DC3DF" stroke-width="4" stroke-miterlimit="10" d="M696.97,386.057
				c4.212-3.272,8.886-7.522,12.905-11.057c4.231-3.721,7.956-6.693,12.146-9.481c3.202-2.13,8.21-9.048,7.905-13.151
				c-0.285-3.846-0.81-8.615-2.302-12.742c-0.54-1.493-4.074-9.683-5.125-11.5c-4.188-7.245-5.36-8.966-9-16.5
				c-7.175-14.854-12.279-30.299-19.833-44.958c-19.667-38.167-47.08-65.106-73.461-97.963
				c-13.41-16.702-25.768-35.736-43.528-48.205c-19.615-13.771-44.945-15.95-65.687-27.292c-6.17-3.374-12.054-6.457-18.389-9.681
				c-14.743-7.502-14.067-3.072-21.414,4.086c-6.28,6.118-11.166,13.491-16.889,20.101c-5.693,6.575-12.641,12.399-17.983,19.562
				c0,0-6.441,4.638-10.209,5.864c-0.021,7.157,0.61,14.264-1.207,21.201c-1.647,6.284-6.653,17.612-3.145,23.348
				c3.331,5.447,9.631,6.053,13.038,13.547c3.195,7.031,9.123,10.151,15.129,14.867c12.089,9.492-13.46,18.017-8.134,28.11
				c3.777,7.157,9.89,11.355,13.827,19.082c3.688,7.24,9.493,8.503,15.141,13.576c4.819,4.33,6.184,12.063,10.306,16.136
				c4.116,4.068,11.866,5.958,17.341,7.826c13.732,4.682,28.488,10.065,42.357,15.367c34.492,13.184,45.521,44.191,49.624,78.297
				l-1.194,6.877c-2.012,7.706-2.285,22.296-10.185,26.25c3.598,8.388,3.483,17.684,4.024,27.357
				c17.018,0.07,31.068,3.08,36.99-15.313c7.662-2.623,15.372-10.062,22.031-15.081c2.363-1.78,0.276-5.125,4.673-6.729
				c3.28-1.197,6.219,3.91,8.42,6.224c0.073,0.086,12.579-8.427,13.305-8.9c8.014-5.223,15.976-10.555,23.947-15.84
				C693.963,388.3,695.488,387.207,696.97,386.057z"/>
		</g>
	</g>
	<path clip-path="url(#SVGID_2_)" fill="#00913A" d="M395.112,59.806C387.182,73.593,373.32,84.12,360,93c-26,17-57,26-72,53
		c-33,59-71,105-128,143c-42.546,28.042-88.599,37.615-135.445,38.444c-0.06-2.038-0.11-4.019-0.198-5.892
		c-0.81-17.324-1.053-33.504,4.752-50.134c0.741-2.122,1.523-4.237,2.336-6.345C51.052,267.642,70.813,267.271,89,261
		c39-14,72-35,103-63c28-23,44-55,70-80c19-20,42-34,67-48c5.216-2.809,9.459-6.752,13.324-11.168
		c13.061-0.183,26.133-0.116,39.163,0.35C386.004,59.343,390.555,59.535,395.112,59.806z M89,261c39-14,72-35,103-63
		c28-23,44-55,70-80c19-20,42-34,67-48c5.216-2.809,9.459-6.752,13.324-11.168c-7.931,0.111-15.856,0.313-23.766,0.574
		c-24.065,0.796-48.078,3.202-71.244,10.062c-11.296,3.345-22.342,7.76-32.966,12.896c-2.1,1.015-4.183,2.058-6.248,3.127
		c-20.575,10.646-40.258,22.957-58.949,36.636c-8.003,5.857-15.894,11.864-23.606,18.099
		c-27.957,22.601-49.978,48.632-69.878,78.442c-9.564,14.326-17.942,30.128-24.222,46.407C51.052,267.642,70.813,267.271,89,261z
		 M452.5,74.333c-4.612-5.255-12.349-7.344-18.826-9.044c-12.508-3.284-25.565-4.71-38.562-5.483
		C387.182,73.593,373.32,84.12,360,93c-26,17-57,26-72,53c-33,59-71,105-128,143c-42.546,28.042-88.599,37.615-135.445,38.444
		c0.372,12.597,1.137,27.442,13.637,33.389c16.618,7.903,36.209-1.177,53.089-2.507c12.157-0.959,24.3-8.526,36.162-11.309
		c43.822-10.28,82.449-33.528,109.596-69.307c3.165-4.171,7.579-7.944,10.806-12.069c7.549-9.646,13.535-19.414,20.755-29.295
		c3.625-4.959,6.271-9.622,11.422-13.464c5.003-3.732,9.607-6.985,13.704-11.546c8.544-9.513,16.87-15.488,28.244-20.3
		c8.651-3.66,22.991-15.535,20.295-25.011c-2.502-8.794,0.651-12.419,5.032-20.256c2.627-4.702,6.254-8.141,10.596-11.354
		c13.627-10.083,29.502-19.251,45.656-24.697c5.864-1.977,11.238-3.818,13.393-9.693C419.496,93.061,457.453,79.978,452.5,74.333z"
		/>
	<path clip-path="url(#SVGID_2_)" fill="#00913A" d="M677.591,172.59c7.125,7.5,13.644,15.039,19.409,22.41
		c6.48,8.285,13.792,23.925,20.051,39.659C712.925,246.307,705.964,256.653,695,263c-5,3-15,0-17-7
		C671.436,227.867,679.821,200.613,677.591,172.59z M729.94,271.811c-0.558-1.962-1.224-4.173-1.973-6.561
		C719.537,276.774,710.362,287.979,702,300c-7,9-14,17-19,28c-6,14-25,21-36,6c-5-8-4-16-2-25c7-33,9-64,3-98c-2-12-4-28-17-29
		c-26-2-52,0-76,16c-3,3-12,2-12,0c-3-11,10-28-2-34c-21-9-48,5-64-13c-5-6-4-19,2-24c19.309-16.895,43.149-29.25,67.874-37.083
		c-14.123-3.372-28.226-4.716-41.942-3.436c-20.684,1.93-34.165,12.602-49.019,26.226c-13.829,12.685-23.212,28.76-23.434,47.89
		c-0.229,19.825,42.013,26.279,48.801,27.049c6.687,0.758,13.651-0.342,20.227,0.579c11.292,1.583,9.591,12.384,5.08,19.719
		c-2.624,4.267-5.356,6.617-9.738,8.935c-5.188,2.744-12.15,11.974-5.726,17.477c5.706,4.885,18.896,2.628,25.555,1.979
		c15.807-1.542,31.199-6.141,45.362-13.281c17.712-8.93,56.625-40.521,61.96-3.054c2.813,19.75,5.948,40.479,1,60
		c-4.825,19.036-12.245,32.523-20.626,49.594c-8.796,17.916-0.238,45.393,7.804,62.359c5.584,11.779,35.896,1.482,44.667-0.898
		c32.626-8.857,75.423-32.928,75.009-71.498C731.551,291.314,737.724,299.182,729.94,271.811z M585.376,103.836
		c23.118,11.036,45.369,26.272,65.063,43.045C623.231,147.396,592.268,158.956,572,137c-5-5-21-4-21-9
		C550.395,110.429,567.043,105.341,585.376,103.836z M727.968,265.25C719.537,276.774,710.362,287.979,702,300c-7,9-14,17-19,28
		c-6,14-25,21-36,6c-5-8-4-16-2-25c7-33,9-64,3-98c-2-12-4-28-17-29c-26-2-52,0-76,16c-3,3-12,2-12,0c-3-11,10-28-2-34
		c-21-9-48,5-64-13c-5-6-4-19,2-24c19.309-16.895,43.149-29.25,67.874-37.083c12.909,3.082,25.835,7.873,38.502,13.919
		C567.043,105.341,550.395,110.429,551,128c0,5,16,4,21,9c20.268,21.956,51.231,10.396,78.439,9.882
		c9.747,8.302,18.861,16.979,27.151,25.708c2.23,28.023-6.155,55.277,0.409,83.41c2,7,12,10,17,7
		c10.964-6.347,17.925-16.693,22.051-28.341C721.415,245.631,725.268,256.648,727.968,265.25z"/>
</g>
<path fill="none" stroke="#7E318E" stroke-width="8" stroke-linecap="round" stroke-miterlimit="10" d="M19,418
	c13.313,1.702,34.581-5.79,47-10c13.571-4.601,26.611-9.759,40-14c6.522-2.066,13.355-5.245,20-7c7.188-1.898,14.868-1.59,22-4.251
	c12.442-4.643,23.52-14.149,34.196-21.502c24.477-16.856,43.46-3.043,66.859,7.749c23.529,10.853,43.619,20.855,69.774,24.171
	c7.263,8.147,22.689,11.063,30.974,22.082c7.633,10.153,14.341,19.186,23.95,27.998c4.765,4.371,8.591,9.062,14.497,11.504
	c9.505,3.931,10.796-1.112,18.728-3.774c13.168-4.418,33.426-1.138,47-3C469.71,445.818,486.719,447,503,447
	c15.866,0,32.951-3.524,48.996-0.996c5.815,0.916,15.909,3.835,21.227,6.771c5.682,3.136,7.973,9.112,14,13.975
	c10.49,8.463,24.844,13.825,38.777,15.251c28.805,2.947,61.754-8.086,86-19"/>
<path fill="none" stroke="#FFFFFF" stroke-width="8" stroke-linecap="round" stroke-miterlimit="10" d="M22,401
	c9.976-0.513,25.047-16.341,32.972-23.274c10.549-9.23,19.917-18.894,32.806-25c12.682-6.007,26.441-9.605,40.274-11.674
	c15.073-2.254,27.193-6.131,41.948-9.274c13.86-2.953,25.07-12.888,39-13.777c17.036-1.088,26.321,6.463,41,10.833
	c13.48,4.013,26.251,10.921,40,13.167c15.932,2.603,32.642,1.955,49,2c32.378,0.088,62.727-3.37,89.804,13.247
	C454.272,372.877,482.262,374.528,513,373c13.839-0.688,32.677-1.805,40.249,9.751c4.267,6.51,4.657,11.647,5.751,19.249
	c1.068,7.424,3.997,12.958,6.147,19.853c7.345,0.275,14.877,4.203,22.627,1.922c6.04-1.779,10.692-7.245,16.468-10.556
	c10.259-5.88,29.416-10.708,42.758-9.219c12.379,1.382,24.898,10.838,35.975,16.025C696.732,426.467,710.454,427,727,427"/>
<path fill="none" stroke="#FFFFFF" stroke-width="8" stroke-linecap="round" stroke-miterlimit="10" d="M254,281
	c11.666,6.65,24.835,12.755,37.199,16.777c12.966,4.218,25.063,11.459,38.578,13.445c31.179,4.58,64.207,3.033,95.246,7.754
	c8.322,1.266,18.634,4.46,26.977,4.023"/>
<path fill="none" stroke="#FFFFFF" stroke-width="8" stroke-linecap="round" stroke-miterlimit="10" d="M391,344
	c-1.374-14.786,4.977-29.912,7.052-43.948c1.229-8.318,2.058-14.727,4.729-22.271c3.148-8.89,3.492-10.444-1.534-18.029
	c-8.204-12.381-13.653-26.184-0.271-36.775c6.385-5.053,9.438-5.665,12.749-13.251c2.494-5.716,5.208-11.201,8.023-16.977
	c10.024-20.564,2.169-47.419,0.028-68.526C419.435,101.121,444.949,94.054,450,74"/>
<path fill="none" stroke="#7E318E" stroke-width="8" stroke-linecap="round" stroke-miterlimit="10" d="M558,556.333
	c-3.567-9.324-0.336-21.804,0.683-31.317c1.148-10.736,0.678-22.681,0.65-33.349c-0.028-11.157-0.701-21.145-2.703-31.297
	c-2.049-10.396-0.507-21.579,2.069-31.336c3.623-13.719,9.035-25.913,11.299-40.036c1.196-7.468,2.363-16.316,0.519-23.85
	c-1.595-6.511-2.684-13.653-8.662-17.698c-4.068-2.752-3.992-9.659-4.628-14.002c-0.73-5.004-0.839-10.147,0.088-15.134
	c1.771-9.539,7.093-17.734,10.037-26.629c1.43-4.318,3.023-9.129,2.498-14.017c-0.572-5.314-3.564-8.676-2.014-14.685
	c2.045-7.92,10.376-15.694,16.033-21.334c12.862-12.823,25.568-27.992,33.48-43.964c3.926-7.925,7.469-17.531,10.021-25.984
	c3.04-10.077,3.069-21.845,6.63-31.368"/>
<path fill="none" stroke="#000000" stroke-width="8" stroke-linecap="round" stroke-miterlimit="10" d="M22,292
	c23.523-13.168,47.832-25.587,72.975-35.025c26.48-9.94,53.865-22.179,82.021-29.756c27.392-7.371,54.219-18.667,83.059-26.164
	C290.356,193.179,317.488,189,351,189c32.993,0,62.207,1.629,92.052,10.948c11.398,3.56,28.412,9.249,32.723,22.278
	c2.687,8.123-1.729,15.083,3.473,22.578c3.427,4.937,10.43,9.559,14.972,12.977c9.956,7.491,22.19,14.743,33.61,18.39
	C531.102,286.389,552.072,292.043,561,295c11.98,3.968,23.128,11.063,34.726,15.277c28.715,10.437,57.707,17.634,88.274,20.774
	c18.749,1.927,35.525,6.95,54,8.948"/>
<path fill="none" stroke="#7E318E" stroke-width="8" stroke-linecap="round" stroke-miterlimit="10" d="M276,238.333
	c-7.709-0.302-19.388-5.137-25.331-10.002c-6.823-5.586-8.321-16.266-10.651-24.015c-5.741-19.093,1.61-43.161-10.665-58.668
	c-18.18-22.967-48.483-23.916-70.686-40.648"/>
<path fill="none" stroke="#FFFFFF" stroke-width="8" stroke-linecap="round" stroke-miterlimit="10" d="M405,265
	c-14.879-0.047-39.744,0.888-52.829-6.171c-3.836-11.586,3.31-30.953,6.61-42.048c4.18-14.052,9.61-24.813,17.996-37.004
	c8.526-12.395,14.326-25.55,20.223-38.829c5.132-11.556,16.212-22.076,24.754-31.226C426.727,104.396,431.088,97.193,437,93"/>
<g>
	<g>
		<path fill="none" stroke="#FFFFFF" stroke-width="8" stroke-miterlimit="10" d="M22,292c3.484-1.95,6.985-3.884,10.504-5.794"/>
		<path fill="none" stroke="#FFFFFF" stroke-width="8" stroke-miterlimit="10" stroke-dasharray="23.441,23.441" d="M53.284,275.357
			c13.638-6.807,27.532-13.067,41.691-18.382c26.48-9.94,53.865-22.179,82.021-29.756c27.392-7.371,54.218-18.667,83.058-26.164
			C290.355,193.179,317.488,189,351,189c32.993,0,62.207,1.629,92.052,10.948c11.398,3.56,28.412,9.249,32.723,22.278
			c2.687,8.123-1.729,15.083,3.473,22.578c3.427,4.937,10.43,9.559,14.972,12.977c3.795,2.855,7.921,5.676,12.207,8.275"/>
		<path fill="none" stroke="#FFFFFF" stroke-width="8" stroke-miterlimit="10" d="M516.715,271.671
			c3.721,1.795,7.459,3.332,11.114,4.5c1.079,3.369,4.082,6.242,7.942,8.685"/>
		<path fill="none" stroke="#FFFFFF" stroke-width="8" stroke-miterlimit="10" stroke-dasharray="22.0987,22.0987" d="
			M556.088,293.422c1.853,0.595,3.527,1.119,4.912,1.578c11.98,3.968,23.128,11.063,34.726,15.277
			c28.715,10.438,57.707,17.635,88.274,20.775c10.84,1.113,21.021,3.263,31.252,5.264"/>
		<path fill="none" stroke="#FFFFFF" stroke-width="8" stroke-miterlimit="10" d="M726.117,338.324
			c3.905,0.66,7.854,1.24,11.883,1.676"/>
	</g>
</g>
</svg>
