<?xml version="1.0" encoding="utf-8"?>
<!-- Generator: Adobe Illustrator 15.0.0, SVG Export Plug-In . SVG Version: 6.00 Build 0)  -->
<!DOCTYPE svg PUBLIC "-//W3C//DTD SVG 1.1//EN" "http://www.w3.org/Graphics/SVG/1.1/DTD/svg11.dtd">
<svg version="1.1" id="レイヤー_1" xmlns="http://www.w3.org/2000/svg" xmlns:xlink="http://www.w3.org/1999/xlink" x="0px"
	 y="0px" width="750px" height="600px" viewBox="0 0 750 600" enable-background="new 0 0 750 600" xml:space="preserve">
<g transform="translate(230.000000, 687.000000)">
	<path fill="#13AE67" d="M449.596-314.659c-0.969,5.67-5.868,12.126-8.259,17.075c0.289-0.6-23.893-15.942-25.617-17.086
		c8.64,8.424,17.083,17.058,25.614,25.586c-2.264-2.261-10.063-7.179-13.236-7.311c-5.531-0.23-6.194,3.336-8.501,8.31
		c-4.978,10.731-7.888,22.225-12.377,33.15c-13.687-6.482-28.398-11.471-42.508-17.108c0.002-8.344,0-17.063,0.001-25.543
		c-23.064,5.139-46.087,10.602-69.222,15.406c-8.859,1.84-9.74,4.832-15.376,12.342c-4.633,6.178-11.494,20.27-18.557,23.552
		c-7.076,3.29-21.262,1.65-29.001,2.206c-15.206,1.092-30.374,2.609-45.583,3.705c-5.774,0.417-21.127-0.786-26.013,2.012
		c-7.032,4.027-11.069,22.544-14.954,29.461c-4.468,7.952-11.597,7.286-20.329,9.883c-11.61,3.453-26.609,10.924-38.787,11.133
		c-0.969,0.018-2.223,0.677-3.155,0.978C78.184-192.462,73.395-197.354,67.75-203c-8.51,8.517-17.079,16.392-29.162,18.999
		c-1.638-18.045,10.9-22.928,8.662-27.749c-5.022-10.816-11.402-19.616-16.705-30.385c-2.122-4.305-4.204-8.628-6.405-12.892
		c5.554-5.549,11.383-11.377,17.028-17.018c-9.524-1.58-19.171-2.429-28.76-3.495c-10.957-1.22-25.576-6.235-36.482-5.084
		c-6.283,0.664-10.21,6.461-14.805,10.611c-11.048,9.981-22.534,19.479-33.72,29.304c-7.487,6.576-14.842,13.315-22.461,19.739
		c2.835,8.51,5.686,17.077,8.511,25.554c-7.178-2.874-14.356-5.746-21.536-8.619c-5.791-2.316-15.453-2.894-19.742-7.694
		c-3.542-3.965-2.987-11.688-3.943-16.79c-1.448-7.724-2.511-15.5-3.882-23.239c-0.387-2.184-0.337-10.122-1.983-11.77
		c0,0-17.021-17.033-17.026-17.038c-2.97-2.972-0.112-24.273,0.041-28.514c0.359-10.001,3.953-23.172-1.124-32.461
		c-2.918-5.34-11.289-11.432-15.948-15.659c12.64-13.999,29.06-25.559,40.429-40.609c8.938-11.831,14.183-33.888,17.665-48.463
		c1.907-7.987-3.362-13.856-7.008-21.6c17.06-14.207,33.858-28.808,51.228-42.634c3.277-2.608,20.355,5.265,23.777,6.311
		c10.695,3.269,21.406,6.499,32.208,9.403c17.852,4.8,19.608-12.075,29.081-23.897c14.95,4.404,28.385,16.861,44.752,16
		c4.989-0.262,10.372-2.333,15.205-3.525c13.542-3.342,27.042-6.868,40.591-10.196c3.363-0.826,6.73-1.689,10.079-2.552
		c-8.519-14.191-17.03-28.386-25.549-42.576c11.11-5.37,21.996-11.191,33.08-16.613c7.954-3.891,16.964-6.602,22.714-13.474
		c9.251-11.057,17.993-22.09,28.057-32.584c5.689-5.934,11.453-11.868,16.482-18.387c2.3-2.981,4.417-8.145,7.367-10.478
		c5.598-4.424,13.099-0.785,19.619,0.49c15.809,3.09,31.884,4.665,47.792,7.16c20.916,3.28,41.17,5.951,61.391,11.908
		c13.483,3.971,29.118,5.198,41.818,11.32c8.688,4.188,14.073,13.268,20.872,19.841c2.388,2.308,4.856,4.534,7.323,6.758
		c-5.693,19.911-11.497,39.791-17.05,59.741c5.37,6.341,10.529,12.884,15.707,19.382c4.615,5.791,15.586,15.077,17.873,22.051
		c1.811,5.519-2.535,15.964-3.581,21.635c-1.295,7.023-4.639,15.289-4.371,22.46c0.511,13.711,7.465,30.055,10.922,43.269
		c5.986,22.893,10.876,46.104,17.252,68.883c1.685,6.021,5.549,15.354,5.729,21.346
		C449.782-316.122,449.723-315.396,449.596-314.659z M200.511-200.801L197.5-186.5l-27-4l1-17l18.5-5.75l24.217-13.468
		L200.511-200.801z M14.75-199.25V-219l-17.5-23.25l31.391,5.376l-2.907,23.247L19.25-184.5l-0.293,17.44L10-162.855L-3.75-157
		l10.856-35.402L-4.25-181l-11.5-23l-4.445-26.968l22.16,10.933L14.75-199.25z M-44.395-256.464l8.511,17.039l-23.95,20.092
		l-12.188-1.618l5.854-12.549L-44.395-256.464z M134.5-165.75l-24-6.75l1.5-8.75l9.933,2.742l13.89,0.364L134.5-165.75z M31-164.25
		l15.425,7L41.75-144.5L60-147l-8.25,9.75L44.5-125.5l-6-10.5L22-137.75l-25.314,10.507L-3.75-146.25l26.5-13.25L21.5-179
		l14.75-7.75l4.517,14.395L31-164.25z M310.667-225.333l-8,12l-16.666,8.666l-12.763-1.451l8.685-21.549L310.667-225.333z
		 M339.965-261.252c-0.038,0.038-0.076,0.076-0.114,0.113c-7.326-4.9-19.976-10.486-23.978-17.549
		c7.06-2.57,14.494-3.859,21.754-5.718c4.121-1.055,7.064-3.291,11.186-4.345c2.139-0.548,8.125-2.938,12.961-1.832
		C354.729-280.999,348.404-269.651,339.965-261.252z M111.126-185.717L105.25-173.5l-15.43,4.799l5.323-17.016H111.126z
		 M-13.751-167.264c-10.204-2.806-9.41-7.907-9.652-17.226c11.246,3.104,12.484,4.744,12.486,4.747
		c1.857,1.73,4.363,6.334,4.471,7.047C-5.754-168.117-10.043-167.444-13.751-167.264z M138.394-172.934
		c0.086-0.546,2.056-4.074,3.51-5.403c0.001-0.002,0.972-1.261,9.762-3.663c-0.212,7.131,0.396,11.033-7.58,13.205
		C141.191-168.925,137.842-169.429,138.394-172.934z M148.383-158.511l6.286-15.529l21.358-8.983l-4.638,21.003L148.383-158.511z
		 M291.657-242.779l-5.404,8.213l-5.421-5.884l3.335-20.972l13.348-2.321L291.657-242.779z M330.489-232.535l1.177,14.869
		l-14.048-1.892l-17.875-28.102l16.464-15.346L330.489-232.535z M268.774-223.629c-0.345-0.592-1.242-5.453-0.914-7.804
		c0.001-0.002-0.069-1.931,6.301-10.672c5.348,7.074,8.951,10.419,3.165,18.343C274.514-221.777,270.982-219.824,268.774-223.629z"
		/>
</g>
<g transform="translate(230.000000, 687.000000)">
	<path fill="#13AE67" d="M-100-312.751c25-18,45-36,68-55c9-8,17-16,28-18c5-2,11-4,13-1c3,3,7,8,11,7c27-5,50-30,55-57
		c4-24,3-47,12-69c0.499-1.247,0.842-2.463,1.059-3.656c-4.137,1.046-8.274,2.087-12.416,3.109
		c-4.834,1.193-10.217,3.264-15.205,3.525c-16.367,0.861-29.802-11.596-44.752-16c-9.473,11.823-11.229,28.698-29.081,23.897
		c-10.802-2.904-21.512-6.134-32.208-9.403c-3.421-1.046-20.5-8.919-23.777-6.311c-17.37,13.826-34.168,28.427-51.228,42.634
		c3.646,7.744,8.916,13.613,7.008,21.6c-3.481,14.575-8.726,36.633-17.665,48.463c-11.369,15.049-27.79,26.61-40.429,40.608
		c4.659,4.229,13.03,10.32,15.948,15.66c5.076,9.289,1.483,22.459,1.124,32.461c-0.152,4.24-3.01,25.541-0.041,28.514
		c0.003,0.002,5.789,5.793,10.615,10.621C-130.251-284.64-116.553-299.647-100-312.751z"/>
	<path fill="#FFF100" d="M-100-312.751c25-18,45-36,68-55c9-8,17-16,28-18c5-2,11-4,13-1c3,3,7,8,11,7c27-5,50-30,55-57
		c4-24,3-47,12-69c0.499-1.247,0.842-2.463,1.059-3.656c-4.137,1.046-8.274,2.087-12.416,3.109
		c-4.834,1.193-10.217,3.264-15.205,3.525c-16.367,0.861-29.803-11.596-44.752-16c-9.473,11.823-11.229,28.698-29.081,23.897
		c-10.802-2.904-21.512-6.134-32.208-9.403c-3.421-1.046-20.5-8.919-23.777-6.311c-17.37,13.826-34.168,28.427-51.228,42.634
		c3.646,7.744,8.916,13.613,7.008,21.6c-3.481,14.575-8.726,36.633-17.665,48.463c-11.369,15.049-27.79,26.61-40.429,40.608
		c4.659,4.229,13.03,10.32,15.948,15.66c5.076,9.289,1.483,22.459,1.124,32.461c-0.152,4.24-3.01,25.541-0.041,28.514
		c0.003,0.002,5.789,5.793,10.615,10.621C-130.251-284.64-116.553-299.647-100-312.751z"/>
	<path fill="#8FC31F" d="M-61-309.751c24-20,51-33,83-37c28-3,44-28,59-51c20.387-33.36,47.635-78.741,28.445-117.048
		c-7.133,1.783-14.259,3.59-21.387,5.392c-0.217,1.193-0.56,2.409-1.059,3.656c-9,22-8,45-12,69c-5,27-28,52-55,57c-4,1-8-4-11-7
		c-2-3-8-1-13,1c-11,2-19,10-28,18c-23,19-43,37-68,55c-16.552,13.104-30.251,28.111-44.048,42.723
		c3.451,3.453,6.412,6.416,6.412,6.416c1.646,1.648,1.596,9.586,1.983,11.77c0.583,3.295,1.109,6.594,1.635,9.895
		c9.234-9.654,16.756-20.879,26.018-30.803C-93-286.751-77-296.751-61-309.751z"/>
	<path fill="#F39800" d="M-49-388.75c43.599-30.184,87.19-65.995,97.193-115.679c-11.208-3.418-21.443-11.083-32.508-14.343
		c-9.473,11.823-11.229,28.698-29.081,23.897c-10.802-2.904-21.512-6.134-32.208-9.403c-3.421-1.046-20.5-8.919-23.777-6.311
		c-17.37,13.826-34.168,28.427-51.228,42.634c3.646,7.744,8.916,13.613,7.008,21.6c-3.481,14.575-8.726,36.633-17.665,48.463
		c-11.369,15.049-27.79,26.61-40.429,40.608c4.659,4.229,13.03,10.32,15.948,15.66c1.379,2.523,2.104,5.34,2.442,8.297
		c29.648-10.691,59.655-19.455,87.303-39.424C-60-377.751-55-383.751-49-388.75z"/>
	<path fill="#E83828" d="M-137-371.751c23-14,45-24,66-39c40.848-28.344,75.432-61.559,99.716-102.528
		c-4.288-2.167-8.593-4.186-13.03-5.493c-9.473,11.823-11.229,28.698-29.081,23.897c-10.802-2.904-21.512-6.134-32.208-9.403
		c-3.421-1.046-20.5-8.919-23.777-6.311c-17.37,13.826-34.168,28.427-51.228,42.634c3.646,7.744,8.916,13.613,7.008,21.6
		c-3.481,14.575-8.726,36.633-17.665,48.463c-11.369,15.049-27.79,26.61-40.429,40.608c1.689,1.533,3.867,3.313,6.096,5.211
		c2.269-1.094,4.47-2.348,6.598-3.678C-151-360.751-145-367.751-137-371.751z"/>
	<path fill="#8FC31F" d="M164-514.798c25,19,50.704-14.868,80.704-7.868c17,3,48.354,8.5,38.354,24.5
		c-10,15-26.391,20.45-42.391,31.45c-24,17-49.609,17.55-73.609,31.55c-26,16-46.848,44.815-63.058,77.834
		c-12.847,24.005-39.333,55.64-45.333,73.64c-2,9-14.191,20.852-14,35.842c5.141,15.594,28.166,37.528,34.667,39.185
		c19.975,5.089,53.333-20,80.667-49.667c23.253-25.239,65.693-12.292,78-15.666c16.051-4.4,31.058-24.167,45.058-32.167
		c5-3,11-6,17-8c9-4,18-7,27-8c39.996-7.691,78.805-10.666,114.16-26.182c-5.045-19.33-9.326-38.883-14.381-58.21
		c-3.457-13.214-10.41-29.558-10.922-43.269c-0.268-7.171,3.076-15.437,4.371-22.46c1.047-5.671,5.393-16.116,3.582-21.635
		c-2.287-6.975-13.258-16.26-17.873-22.051c-5.178-6.498-10.338-13.041-15.707-19.382c5.553-19.95,11.355-39.831,17.049-59.741
		c-2.467-2.224-4.936-4.45-7.322-6.758c-6.799-6.573-12.186-15.653-20.873-19.841c-12.699-6.122-28.334-7.349-41.818-11.32
		c-20.221-5.957-40.475-8.628-61.391-11.908c-15.908-2.495-31.982-4.069-47.791-7.16c-6.521-1.275-14.021-4.915-19.619-0.49
		c-2.951,2.333-5.068,7.497-7.367,10.478c-5.029,6.519-10.793,12.453-16.482,18.387c-10.064,10.494-18.807,21.527-28.057,32.584
		c-5.75,6.872-14.761,9.583-22.714,13.474c-2.327,1.139-4.642,2.301-6.956,3.467C139.02-558.724,148.379-526.213,164-514.798z"/>
	<path fill="#FFF100" d="M185.334-544.019c29.736,1.43,85.333-20.647,107.666-4.897c16.283,11.483,26,31,18,49c0,1-2,4-2,4
		c-10,22-28,38-47,53c-2,2-7,4-9,6c-17,11-30.684,13.833-53.184,21.583c-18.647,6.423-56.612,42.636-64.483,58
		c-9.602,18.744-77,107.985-56,112.985c8.46,1.781,51.217-4.451,77.014-30.227c34.319-34.291,75.001-28.512,84.986-30.176
		c3,0,39.666-20.488,42.666-21.488c27-9,40-12.678,66-22.678c27.827-10.703,54.637-23.947,82.971-33.203
		c-2.003-8.33-4.025-16.656-6.191-24.939c-3.457-13.213-10.412-29.557-10.922-43.268c-0.268-7.172,3.076-15.438,4.371-22.461
		c1.045-5.671,5.391-16.116,3.58-21.635c-2.287-6.975-13.258-16.26-17.873-22.051c-5.178-6.498-10.336-13.041-15.707-19.382
		c5.553-19.95,11.357-39.831,17.051-59.741c-2.467-2.224-4.936-4.45-7.324-6.758c-6.799-6.573-12.184-15.653-20.871-19.841
		c-12.701-6.122-28.336-7.349-41.818-11.32c-20.221-5.957-40.475-8.628-61.391-11.908c-15.908-2.495-31.984-4.069-47.793-7.16
		c-6.52-1.275-14.021-4.915-19.619-0.49c-2.949,2.333-5.066,7.497-7.367,10.478c-5.029,6.519-10.793,12.453-16.482,18.387
		c-8.914,9.296-16.793,19.016-24.906,28.799C174.035-580.999,165.358-544.979,185.334-544.019z"/>
	<path fill="#F39800" d="M326.722-550.541c22,35,0,79,7,121c2,16,24,40,36,24c8-10,16-20,20-33c2-4,3-8,3-12
		c0.817-21.25,9.651-39.827,20.495-57.371c-2.894-3.036-5.728-5.889-7.56-8.187c-5.178-6.498-10.336-13.041-15.707-19.382
		c5.553-19.95,11.357-39.831,17.051-59.741c-2.467-2.224-4.936-4.45-7.324-6.758c-6.799-6.573-12.184-15.653-20.871-19.841
		c-12.701-6.122-28.336-7.349-41.818-11.32c-20.221-5.957-40.475-8.628-61.391-11.908c-15.908-2.495-31.984-4.069-47.793-7.16
		c-6.52-1.275-14.021-4.915-19.619-0.49c-2.949,2.333-5.066,7.497-7.367,10.478c-5.029,6.519-10.793,12.453-16.482,18.387
		c-0.76,0.792-1.502,1.592-2.248,2.391c8.967,8.722,7.974,42.745,21.247,43.444C247.334-573,303.722-589.541,326.722-550.541z"/>
	<path fill="#E83828" d="M295-614.916c29.3,31.964,74.365,31.604,111.4,18.523c-2.172-1.96-4.342-3.928-6.445-5.961
		c-6.799-6.573-12.184-15.653-20.871-19.841c-12.701-6.122-28.336-7.349-41.818-11.32c-20.221-5.957-40.475-8.628-61.391-11.908
		c-15.908-2.495-31.984-4.069-47.793-7.16c-6.52-1.275-14.021-4.915-19.619-0.49c-2.949,2.333-5.066,7.497-7.367,10.478
		c-0.418,0.543-0.85,1.077-1.279,1.612c22.245,13.492,50.938,17.428,77.184,18.068C284-622.916,291-619.916,295-614.916z"/>
	
		<ellipse transform="matrix(-0.9235 0.3835 -0.3835 -0.9235 331.5399 -811.7544)" fill="#F39800" cx="246.699" cy="-372.824" rx="69.765" ry="29.45"/>
	
		<ellipse transform="matrix(-0.7028 0.7113 -0.7113 -0.7028 12.4552 -602.2861)" fill="#F39800" cx="132.028" cy="-298.542" rx="38.084" ry="14.39"/>
	<path fill="#006934" d="M44.271-278.219c6-18,12-35,15-53c-7-1-12,4-18,8c-20,14-40,23-61,36
		c-3.768,2.512-7.139,5.418-10.117,8.717c1.801-1.266,3.766-2.186,6.042-2.426c10.906-1.15,25.526,3.865,36.482,5.084
		c9.282,1.033,18.618,1.867,27.846,3.354C42.202-273.898,43.52-275.713,44.271-278.219z"/>
</g>
<g>
	<g>
		<path fill="none" stroke="#000000" stroke-width="9" stroke-miterlimit="10" d="M58.307,521.667
			c10.8-12.204,21.945-24.158,33.03-36.104c9.993-10.769,21.669-20.504,30.531-32.256c5.313-7.046,12.727-12.322,18.969-18.553
			c8.762-8.744,16.02-20.327,26.38-27.265c8.438-5.65,16.765-13.587,25.954-17.813c10.54-4.849,24.052-2.688,35.358-3.746
			c11.146-1.042,21.198,0.553,32.219,2.487c9.273,1.627,20.362,6.415,28.064-0.527c10.643-9.593,22.615-17.357,34.549-25.233
			c8.382-5.532,17.942-6.599,27.737-8.129c10.488-1.638,20.85-3.04,31.426-1.535c12.291,1.749,23.128,5.944,33.708,12.308
			c9.79,5.888,21.094,7.999,31.547,12.421c10.565,4.469,18.934,8.698,30.617,8.918c11.83,0.223,23.442,1.845,35.229,2.42
			c11.101,0.542,22.424-1.411,33.088-4.381c10.133-2.82,19.468-7.6,29.867-9.496c11.795-2.151,23.465-3.848,34.943-7.415
			c11.443-3.556,23.613-4.858,35.235-7.841c10.444-2.681,19.327-6.169,30.077-6.117c14.38,0.069,28.788-1.079,43.164-1.479"/>
		<g>
			<g>
				<path fill="none" stroke="#FFFFFF" stroke-width="9" stroke-miterlimit="10" d="M58.307,521.667
					c2.648-2.993,5.318-5.971,8.002-8.937"/>
				<path fill="none" stroke="#FFFFFF" stroke-width="9" stroke-miterlimit="10" stroke-dasharray="24.6481,24.6481" d="
					M82.977,494.572c2.786-3.006,5.575-6.008,8.36-9.01c9.993-10.769,21.669-20.504,30.531-32.256
					c5.313-7.046,12.727-12.322,18.969-18.553c8.762-8.744,16.02-20.327,26.38-27.265c8.438-5.65,16.765-13.587,25.954-17.813
					c10.54-4.849,24.052-2.688,35.358-3.746c11.146-1.042,21.198,0.553,32.219,2.487c9.273,1.627,20.362,6.415,28.064-0.527
					c10.643-9.593,22.615-17.357,34.549-25.233c8.382-5.532,17.941-6.599,27.737-8.129c10.487-1.638,20.85-3.04,31.426-1.535
					c12.291,1.749,23.128,5.944,33.708,12.308c9.79,5.888,21.094,7.999,31.547,12.421c10.565,4.469,18.934,8.698,30.617,8.918
					c11.83,0.223,23.442,1.845,35.229,2.42c11.101,0.542,22.424-1.411,33.088-4.381c10.133-2.82,19.468-7.6,29.867-9.496
					c11.795-2.151,23.465-3.848,34.943-7.415c11.443-3.556,23.613-4.858,35.235-7.841c10.444-2.681,19.327-6.169,30.077-6.117
					c6.283,0.03,12.571-0.172,18.859-0.442"/>
				<path fill="none" stroke="#FFFFFF" stroke-width="9" stroke-miterlimit="10" d="M708.012,352.794
					c3.998-0.185,7.994-0.353,11.988-0.464"/>
			</g>
		</g>
	</g>
</g>
<g>
	<path fill="none" stroke="#595757" stroke-width="11" stroke-linecap="round" stroke-miterlimit="10" stroke-dasharray="12" d="
		M274.665,391.281"/>
	<path fill="none" stroke="#595757" stroke-width="11" stroke-linecap="round" stroke-miterlimit="10" d="M35,391.281
		c18.375-8.584,36.721-17.231,55.125-25.755c8.901-4.122,18.834-7.53,26.999-13.066c21.8-14.782,42.47-32.759,62.92-49.36
		c16.381-13.298,40.129-14.992,60.087-20.666c20.803-5.915,39.089-22.948,56.769-34.808c17.195-11.536,34.508-22.157,52.624-32.192
		c9.442-5.23,19.296-13.614,29.419-17.315c10.791-3.946,24.815-3.651,36.127-5.476c23.427-3.779,44.753-10.854,67.418-18.081
		c7.327-2.336,13.622-2.571,21.285-3.006c15.587-0.883,31.133-2.295,46.742-2.79c20.207-0.641,41.257-10.025,60.497-15.599
		c20.968-6.074,41.001-12.694,62.59-16.059c5.632-0.878,11.266-1.742,16.899-2.607"/>
	<path fill="none" stroke="#595757" stroke-width="11" stroke-linecap="round" stroke-miterlimit="10" d="M46,489.5
		c14.411-13.636,33.091-21.979,47.392-35.857c9.621-9.336,20.34-17.456,29.845-26.971c8.161-8.17,15.631-17.323,25.099-24.054
		c19.182-13.638,42.104-20.856,62.406-32.536c5.949-3.422,11.003-6.276,17.458-8.816c11.979-4.716,22.673-11.481,34.281-16.754
		c8.985-4.082,20.799-2.646,30.438-3.565c10.799-1.029,21.478-2.616,32.328-2.983c11.319-0.385,22.449-2.137,33.729-2.869
		c11.107-0.72,21.303,1.966,31.831,5.215c22.396,6.912,45.85,8.014,68.641,13.571c10.058,2.452,16.294,1.349,25.91-2.224
		c11.482-4.267,22.673-6.942,34.962-7.274c22.487-0.606,44.454-1.448,66.91-3.024c25.605-1.798,49.913-5.14,75.297-9.313
		c14.838-2.439,29.646-5.06,44.476-7.545"/>
	<path fill="none" stroke="#595757" stroke-width="11" stroke-linecap="round" stroke-miterlimit="10" d="M611.52,339.176
		c-15.787,28.541-32.213,58.996-50.643,86.795c-5.506,8.305-10.39,20.151-18.758,25.812c-12.738,8.615-25.856,16.702-38.661,25.223
		c-5.792,3.854-11.335,8.056-17.223,11.759c-3.987,2.508-11.481,5.813-12.869,10.809c-1.68,6.068,3.901,21.601,8.413,25.785
		c3.005,2.787,10.588,4.104,14.395,5.599c6.974,2.741,13.996,5.441,20.909,8.328c9.18,3.835,13.522,7.674,19.917,15.216"/>
	<path fill="none" stroke="#595757" stroke-width="11" stroke-linecap="round" stroke-miterlimit="10" d="M358.5,71
		c11.895,28.339,23.723,56.736,37.688,84.137c5.854,11.485,10.952,23.641,17.508,34.742c3.651,6.183,10.001,10.184,15.408,14.926
		c15.049,13.201,28.864,26.598,46.293,36.408c19.806,11.148,41.995,21.42,60.438,34.59c8.829,6.305,15.456,16.024,23.81,22.98
		c9.006,7.499,21.9,3.191,27.84,14.529c4.434,8.462,7.139,18.335,11.012,27.147"/>
	<path fill="none" stroke="#595757" stroke-width="11" stroke-linecap="round" stroke-miterlimit="10" d="M250,98.945
		c8.267,9.548,15.863,19.742,24.842,28.65c8.122,8.058,18.883,13.645,27.653,21.031c14.086,11.864,27.849,23.139,33.006,41.681
		c4.919,17.686-8.558,33.327-17.807,47.088c-9.797,14.577-17.335,32.508-30.915,44.058c-7.052,5.998-14.985,10.865-21.999,16.905
		c-6.705,5.774-9.875,12.704-14.196,20.25c-2.894,5.054-6.611,9.589-3.682,15.501c2.477,5,8.25,8.033,11.812,12.178"/>
</g>
</svg>
